<?xml version="1.0"?><svg xmlns="http://www.w3.org/2000/svg" xmlns:svg="http://www.w3.org/2000/svg" version="1.1" viewBox="-2 -2 62 62"><g class="layer">
  <title>Layer 1</title><path d="M1 16a1,1 0 0,1 1,1a1,1 0 0,0 1,1h2a1,1 0 0,1 1,1a1,1 0 0,1 -1,1h-2a1,1 0 0,0 -1,1a1,1 0 0,1 -1,1a1,1 0 0,1 -1,-1v-2v-2a1,1 0 0,1 1,-1M1 24a1,1 0 0,0 1,-1a1,1 0 0,1 1,-1a1,1 0 0,1 1,1a1,1 0 0,0 1,1h2a1,1 0 0,1 1,1a1,1 0 0,1 -1,1h-2h-2a1,1 0 0,0 -1,1a1,1 0 0,1 -1,1a1,1 0 0,1 -1,-1v-2a1,1 0 0,1 1,-1M1 34a1,1 0 0,1 1,1a1,1 0 0,0 1,1a1,1 0 0,1 1,1v2v2a1,1 0 0,1 -1,1h-2a1,1 0 0,1 -1,-1v-2v-2v-2a1,1 0 0,1 1,-1M3 30a1,1 0 0,1 1,1a1,1 0 0,1 -1,1a1,1 0 0,1 -1,-1a1,1 0 0,1 1,-1M5 32a1,1 0 0,1 1,1a1,1 0 0,1 -1,1a1,1 0 0,1 -1,-1a1,1 0 0,1 1,-1M7 16h2h2h2h2h2a1,1 0 0,1 1,1a1,1 0 0,1 -1,1h-2h-2a1,1 0 0,0 -1,1a1,1 0 0,1 -1,1a1,1 0 0,1 -1,-1a1,1 0 0,0 -1,-1h-2a1,1 0 0,1 -1,-1a1,1 0 0,1 1,-1M7 28h2a1,1 0 0,1 1,1a1,1 0 0,1 -1,1h-2a1,1 0 0,1 -1,-1a1,1 0 0,1 1,-1M7 34a1,1 0 0,0 1,-1a1,1 0 0,1 1,-1h2h2a1,1 0 0,1 1,1a1,1 0 0,1 -1,1a1,1 0 0,0 -1,1a1,1 0 0,1 -1,1a1,1 0 0,0 -1,1a1,1 0 0,0 1,1a1,1 0 0,1 1,1a1,1 0 0,1 -1,1a1,1 0 0,0 -1,1a1,1 0 0,1 -1,1h-2a1,1 0 0,1 -1,-1a1,1 0 0,1 1,-1a1,1 0 0,0 1,-1a1,1 0 0,0 -1,-1a1,1 0 0,1 -1,-1v-2a1,1 0 0,1 1,-1M9 20a1,1 0 0,1 1,1a1,1 0 0,0 1,1a1,1 0 0,1 1,1a1,1 0 0,0 1,1a1,1 0 0,0 1,-1a1,1 0 0,1 1,-1h2h2a1,1 0 0,1 1,1a1,1 0 0,0 1,1h2a1,1 0 0,1 1,1a1,1 0 0,0 1,1a1,1 0 0,1 1,1a1,1 0 0,1 -1,1a1,1 0 0,0 -1,1a1,1 0 0,1 -1,1a1,1 0 0,0 -1,1a1,1 0 0,0 1,1a1,1 0 0,1 1,1a1,1 0 0,0 1,1a1,1 0 0,1 1,1a1,1 0 0,1 -1,1h-2a1,1 0 0,0 -1,1a1,1 0 0,0 1,1a1,1 0 0,1 1,1v2a1,1 0 0,1 -1,1a1,1 0 0,1 -1,-1a1,1 0 0,0 -1,-1a1,1 0 0,1 -1,-1a1,1 0 0,0 -1,-1a1,1 0 0,0 -1,1v2a1,1 0 0,0 1,1a1,1 0 0,1 1,1a1,1 0 0,1 -1,1a1,1 0 0,0 -1,1v2a1,1 0 0,0 1,1a1,1 0 0,0 1,-1v-2a1,1 0 0,1 1,-1a1,1 0 0,1 1,1v2a1,1 0 0,0 1,1h2a1,1 0 0,0 1,-1v-2a1,1 0 0,0 -1,-1a1,1 0 0,1 -1,-1a1,1 0 0,1 1,-1a1,1 0 0,0 1,-1v-2v-2a1,1 0 0,1 1,-1h2a1,1 0 0,1 1,1a1,1 0 0,1 -1,1a1,1 0 0,0 -1,1v2v2v2v2v2a1,1 0 0,1 -1,1a1,1 0 0,0 -1,1a1,1 0 0,1 -1,1a1,1 0 0,1 -1,-1a1,1 0 0,0 -1,-1h-2a1,1 0 0,0 -1,1a1,1 0 0,0 1,1a1,1 0 0,1 1,1v2v2a1,1 0 0,1 -1,1a1,1 0 0,1 -1,-1v-2a1,1 0 0,0 -1,-1a1,1 0 0,1 -1,-1a1,1 0 0,0 -1,-1a1,1 0 0,1 -1,-1v-2v-2v-2v-2a1,1 0 0,0 -1,-1h-2a1,1 0 0,1 -1,-1a1,1 0 0,1 1,-1a1,1 0 0,0 1,-1a1,1 0 0,1 1,-1a1,1 0 0,0 1,-1a1,1 0 0,1 1,-1a1,1 0 0,0 1,-1a1,1 0 0,1 1,-1a1,1 0 0,0 1,-1a1,1 0 0,0 -1,-1a1,1 0 0,1 -1,-1a1,1 0 0,0 -1,-1a1,1 0 0,1 -1,-1a1,1 0 0,1 1,-1a1,1 0 0,0 1,-1a1,1 0 0,0 -1,-1h-2h-2a1,1 0 0,0 -1,1a1,1 0 0,1 -1,1a1,1 0 0,1 -1,-1v-2a1,1 0 0,0 -1,-1a1,1 0 0,1 -1,-1v-2a1,1 0 0,1 1,-1M13 20a1,1 0 0,1 1,1a1,1 0 0,1 -1,1a1,1 0 0,1 -1,-1a1,1 0 0,1 1,-1M13 28a1,1 0 0,1 1,1a1,1 0 0,1 -1,1a1,1 0 0,1 -1,-1a1,1 0 0,1 1,-1M13 36a1,1 0 0,1 1,1a1,1 0 0,1 -1,1a1,1 0 0,1 -1,-1a1,1 0 0,1 1,-1M15 34a1,1 0 0,1 1,1a1,1 0 0,1 -1,1a1,1 0 0,1 -1,-1a1,1 0 0,1 1,-1M17 0h2a1,1 0 0,1 1,1a1,1 0 0,1 -1,1a1,1 0 0,0 -1,1v2a1,1 0 0,1 -1,1a1,1 0 0,1 -1,-1v-2v-2a1,1 0 0,1 1,-1M17 8a1,1 0 0,0 1,-1a1,1 0 0,1 1,-1a1,1 0 0,0 1,-1v-2a1,1 0 0,1 1,-1a1,1 0 0,1 1,1a1,1 0 0,0 1,1a1,1 0 0,1 1,1a1,1 0 0,0 1,1a1,1 0 0,1 1,1a1,1 0 0,1 -1,1h-2h-2a1,1 0 0,0 -1,1a1,1 0 0,0 1,1h2h2a1,1 0 0,0 1,-1a1,1 0 0,1 1,-1a1,1 0 0,1 1,1a1,1 0 0,0 1,1a1,1 0 0,1 1,1v2v2a1,1 0 0,0 1,1h2h2a1,1 0 0,1 1,1a1,1 0 0,1 -1,1h-2h-2a1,1 0 0,0 -1,1v2a1,1 0 0,0 1,1a1,1 0 0,1 1,1a1,1 0 0,1 -1,1a1,1 0 0,0 -1,1a1,1 0 0,1 -1,1h-2a1,1 0 0,1 -1,-1a1,1 0 0,1 1,-1a1,1 0 0,0 1,-1v-2v-2a1,1 0 0,0 -1,-1a1,1 0 0,1 -1,-1a1,1 0 0,1 1,-1a1,1 0 0,0 1,-1v-2a1,1 0 0,0 -1,-1a1,1 0 0,0 -1,1v2a1,1 0 0,1 -1,1a1,1 0 0,1 -1,-1v-2a1,1 0 0,0 -1,-1a1,1 0 0,0 -1,1v2a1,1 0 0,0 1,1a1,1 0 0,1 1,1a1,1 0 0,1 -1,1h-2a1,1 0 0,1 -1,-1v-2v-2a1,1 0 0,0 -1,-1a1,1 0 0,1 -1,-1a1,1 0 0,0 -1,-1a1,1 0 0,1 -1,-1a1,1 0 0,1 1,-1M17 12a1,1 0 0,1 1,1a1,1 0 0,1 -1,1a1,1 0 0,1 -1,-1a1,1 0 0,1 1,-1M17 56a1,1 0 0,1 1,1a1,1 0 0,1 -1,1a1,1 0 0,1 -1,-1a1,1 0 0,1 1,-1M23 0h2h2h2h2a1,1 0 0,1 1,1v2a1,1 0 0,1 -1,1a1,1 0 0,0 -1,1a1,1 0 0,0 1,1a1,1 0 0,1 1,1v2a1,1 0 0,1 -1,1a1,1 0 0,1 -1,-1a1,1 0 0,0 -1,-1a1,1 0 0,1 -1,-1a1,1 0 0,0 -1,-1a1,1 0 0,1 -1,-1v-2a1,1 0 0,0 -1,-1h-2a1,1 0 0,1 -1,-1a1,1 0 0,1 1,-1M23 20h2a1,1 0 0,1 1,1v2a1,1 0 0,1 -1,1a1,1 0 0,1 -1,-1a1,1 0 0,0 -1,-1a1,1 0 0,1 -1,-1a1,1 0 0,1 1,-1M25 30h2a1,1 0 0,0 1,-1a1,1 0 0,1 1,-1h2a1,1 0 0,1 1,1a1,1 0 0,1 -1,1a1,1 0 0,0 -1,1a1,1 0 0,1 -1,1h-2h-2a1,1 0 0,1 -1,-1a1,1 0 0,1 1,-1M25 54a1,1 0 0,0 1,-1a1,1 0 0,1 1,-1a1,1 0 0,0 1,-1a1,1 0 0,1 1,-1a1,1 0 0,1 1,1v2a1,1 0 0,1 -1,1a1,1 0 0,0 -1,1a1,1 0 0,1 -1,1a1,1 0 0,0 -1,1a1,1 0 0,1 -1,1a1,1 0 0,1 -1,-1v-2a1,1 0 0,1 1,-1M29 56a1,1 0 0,1 1,1a1,1 0 0,1 -1,1a1,1 0 0,1 -1,-1a1,1 0 0,1 1,-1M31 32a1,1 0 0,1 1,1a1,1 0 0,1 -1,1a1,1 0 0,1 -1,-1a1,1 0 0,1 1,-1M31 38a1,1 0 0,0 1,-1a1,1 0 0,1 1,-1a1,1 0 0,1 1,1v2a1,1 0 0,1 -1,1h-2a1,1 0 0,1 -1,-1a1,1 0 0,1 1,-1M31 44a1,1 0 0,0 1,-1a1,1 0 0,1 1,-1a1,1 0 0,1 1,1v2a1,1 0 0,0 1,1a1,1 0 0,1 1,1a1,1 0 0,1 -1,1a1,1 0 0,0 -1,1a1,1 0 0,0 1,1h2a1,1 0 0,0 1,-1a1,1 0 0,1 1,-1a1,1 0 0,0 1,-1a1,1 0 0,0 -1,-1h-2a1,1 0 0,1 -1,-1v-2a1,1 0 0,1 1,-1a1,1 0 0,1 1,1a1,1 0 0,0 1,1a1,1 0 0,0 1,-1v-2a1,1 0 0,1 1,-1h2a1,1 0 0,0 1,-1v-2a1,1 0 0,1 1,-1a1,1 0 0,1 1,1a1,1 0 0,0 1,1a1,1 0 0,0 1,-1v-2a1,1 0 0,1 1,-1a1,1 0 0,1 1,1a1,1 0 0,0 1,1a1,1 0 0,1 1,1a1,1 0 0,0 1,1a1,1 0 0,1 1,1a1,1 0 0,0 1,1a1,1 0 0,1 1,1a1,1 0 0,1 -1,1h-2a1,1 0 0,0 -1,1v2a1,1 0 0,1 -1,1a1,1 0 0,0 -1,1a1,1 0 0,0 1,1a1,1 0 0,1 1,1a1,1 0 0,1 -1,1h-2h-2h-2a1,1 0 0,0 -1,1a1,1 0 0,1 -1,1a1,1 0 0,0 -1,1a1,1 0 0,1 -1,1a1,1 0 0,1 -1,-1a1,1 0 0,0 -1,-1h-2a1,1 0 0,0 -1,1a1,1 0 0,1 -1,1h-2a1,1 0 0,1 -1,-1v-2a1,1 0 0,0 -1,-1a1,1 0 0,1 -1,-1a1,1 0 0,1 1,-1a1,1 0 0,0 1,-1a1,1 0 0,0 -1,-1a1,1 0 0,1 -1,-1a1,1 0 0,1 1,-1M31 54a1,1 0 0,1 1,1a1,1 0 0,1 -1,1a1,1 0 0,1 -1,-1a1,1 0 0,1 1,-1M33 12a1,1 0 0,1 1,1a1,1 0 0,1 -1,1a1,1 0 0,1 -1,-1a1,1 0 0,1 1,-1M33 30a1,1 0 0,1 1,1a1,1 0 0,1 -1,1a1,1 0 0,1 -1,-1a1,1 0 0,1 1,-1M35 6a1,1 0 0,1 1,1a1,1 0 0,1 -1,1a1,1 0 0,1 -1,-1a1,1 0 0,1 1,-1M35 20a1,1 0 0,1 1,1a1,1 0 0,0 1,1h2a1,1 0 0,1 1,1v2a1,1 0 0,1 -1,1a1,1 0 0,1 -1,-1a1,1 0 0,0 -1,-1h-2a1,1 0 0,1 -1,-1v-2a1,1 0 0,1 1,-1M35 40a1,1 0 0,1 1,1a1,1 0 0,1 -1,1a1,1 0 0,1 -1,-1a1,1 0 0,1 1,-1M35 56h2h2h2a1,1 0 0,1 1,1a1,1 0 0,1 -1,1h-2h-2h-2a1,1 0 0,1 -1,-1a1,1 0 0,1 1,-1M37 0a1,1 0 0,1 1,1a1,1 0 0,1 -1,1a1,1 0 0,1 -1,-1a1,1 0 0,1 1,-1M37 4a1,1 0 0,1 1,1a1,1 0 0,1 -1,1a1,1 0 0,1 -1,-1a1,1 0 0,1 1,-1M37 8h2a1,1 0 0,1 1,1a1,1 0 0,1 -1,1h-2a1,1 0 0,1 -1,-1a1,1 0 0,1 1,-1M37 12a1,1 0 0,1 1,1a1,1 0 0,1 -1,1a1,1 0 0,1 -1,-1a1,1 0 0,1 1,-1M37 18h2h2a1,1 0 0,0 1,-1a1,1 0 0,1 1,-1a1,1 0 0,1 1,1v2a1,1 0 0,1 -1,1a1,1 0 0,0 -1,1a1,1 0 0,1 -1,1a1,1 0 0,1 -1,-1a1,1 0 0,0 -1,-1h-2a1,1 0 0,1 -1,-1a1,1 0 0,1 1,-1M37 26a1,1 0 0,1 1,1a1,1 0 0,1 -1,1a1,1 0 0,1 -1,-1a1,1 0 0,1 1,-1M37 32a1,1 0 0,1 1,1a1,1 0 0,0 1,1h2a1,1 0 0,1 1,1a1,1 0 0,1 -1,1a1,1 0 0,0 -1,1v2a1,1 0 0,1 -1,1h-2a1,1 0 0,1 -1,-1a1,1 0 0,1 1,-1a1,1 0 0,0 1,-1a1,1 0 0,0 -1,-1a1,1 0 0,1 -1,-1v-2a1,1 0 0,1 1,-1M39 2h2a1,1 0 0,1 1,1a1,1 0 0,1 -1,1h-2a1,1 0 0,1 -1,-1a1,1 0 0,1 1,-1M39 28h2h2a1,1 0 0,1 1,1a1,1 0 0,0 1,1a1,1 0 0,1 1,1a1,1 0 0,1 -1,1h-2h-2a1,1 0 0,1 -1,-1a1,1 0 0,0 -1,-1a1,1 0 0,1 -1,-1a1,1 0 0,1 1,-1M41 6a1,1 0 0,1 1,1a1,1 0 0,1 -1,1a1,1 0 0,1 -1,-1a1,1 0 0,1 1,-1M41 12a1,1 0 0,1 1,1a1,1 0 0,1 -1,1a1,1 0 0,1 -1,-1a1,1 0 0,1 1,-1M43 48h2h2a1,1 0 0,0 1,-1v-2v-2a1,1 0 0,0 -1,-1h-2h-2a1,1 0 0,0 -1,1v2v2a1,1 0 0,0 1,1M43 54h2a1,1 0 0,1 1,1a1,1 0 0,1 -1,1h-2a1,1 0 0,1 -1,-1a1,1 0 0,1 1,-1M45 22a1,1 0 0,1 1,1v2a1,1 0 0,0 1,1h2h2h2h2a1,1 0 0,0 1,-1v-2a1,1 0 0,1 1,-1a1,1 0 0,1 1,1v2v2v2v2a1,1 0 0,1 -1,1a1,1 0 0,1 -1,-1v-2a1,1 0 0,0 -1,-1a1,1 0 0,0 -1,1v2a1,1 0 0,1 -1,1a1,1 0 0,1 -1,-1v-2a1,1 0 0,0 -1,-1a1,1 0 0,0 -1,1v2a1,1 0 0,1 -1,1a1,1 0 0,1 -1,-1a1,1 0 0,0 -1,-1a1,1 0 0,1 -1,-1a1,1 0 0,0 -1,-1a1,1 0 0,1 -1,-1v-2v-2a1,1 0 0,1 1,-1M45 44a1,1 0 0,1 1,1a1,1 0 0,1 -1,1a1,1 0 0,1 -1,-1a1,1 0 0,1 1,-1M47 18a1,1 0 0,0 1,-1a1,1 0 0,1 1,-1a1,1 0 0,1 1,1v2v2a1,1 0 0,0 1,1a1,1 0 0,1 1,1a1,1 0 0,1 -1,1h-2a1,1 0 0,1 -1,-1v-2a1,1 0 0,0 -1,-1a1,1 0 0,1 -1,-1a1,1 0 0,1 1,-1M47 32a1,1 0 0,1 1,1a1,1 0 0,1 -1,1a1,1 0 0,1 -1,-1a1,1 0 0,1 1,-1M47 52h2a1,1 0 0,1 1,1a1,1 0 0,1 -1,1h-2a1,1 0 0,1 -1,-1a1,1 0 0,1 1,-1M47 56h2a1,1 0 0,1 1,1a1,1 0 0,1 -1,1h-2a1,1 0 0,1 -1,-1a1,1 0 0,1 1,-1M51 32a1,1 0 0,1 1,1a1,1 0 0,1 -1,1a1,1 0 0,1 -1,-1a1,1 0 0,1 1,-1M51 54a1,1 0 0,0 1,-1a1,1 0 0,1 1,-1a1,1 0 0,0 1,-1a1,1 0 0,1 1,-1a1,1 0 0,1 1,1a1,1 0 0,0 1,1a1,1 0 0,1 1,1v2a1,1 0 0,1 -1,1a1,1 0 0,1 -1,-1a1,1 0 0,0 -1,-1a1,1 0 0,0 -1,1a1,1 0 0,1 -1,1h-2a1,1 0 0,1 -1,-1a1,1 0 0,1 1,-1M53 16h2h2a1,1 0 0,1 1,1a1,1 0 0,1 -1,1a1,1 0 0,0 -1,1a1,1 0 0,1 -1,1a1,1 0 0,0 -1,1a1,1 0 0,1 -1,1a1,1 0 0,1 -1,-1v-2v-2a1,1 0 0,1 1,-1M53 34h2a1,1 0 0,1 1,1a1,1 0 0,1 -1,1h-2a1,1 0 0,1 -1,-1a1,1 0 0,1 1,-1M55 46h2a1,1 0 0,1 1,1a1,1 0 0,1 -1,1h-2a1,1 0 0,1 -1,-1a1,1 0 0,1 1,-1M57 36a1,1 0 0,1 1,1a1,1 0 0,1 -1,1a1,1 0 0,1 -1,-1a1,1 0 0,1 1,-1" fill-rule="evenodd" fill="#000000" id="svg_1" /></g><path d="M3,0h8a3,3 0 0,1 3,3v8a3,3 0 0,1 -3,3h-8a3,3 0 0,1 -3,-3v-8a3,3 0 0,1 3,-3zM4.1,2a2.0999999999999996,2.0999999999999996 0 0,0 -2.0999999999999996,2.0999999999999996v5.800000000000001a2.0999999999999996,2.0999999999999996 0 0,0 2.0999999999999996,2.0999999999999996h5.800000000000001a2.0999999999999996,2.0999999999999996 0 0,0 2.0999999999999996,-2.0999999999999996v-5.800000000000001a2.0999999999999996,2.0999999999999996 0 0,0 -2.0999999999999996,-2.0999999999999996h-5.800000000000001zM5.5,4h3a1.5,1.5 0 0,1 1.5,1.5v3a1.5,1.5 0 0,1 -1.5,1.5h-3a1.5,1.5 0 0,1 -1.5,-1.5v-3a1.5,1.5 0 0,1 1.5,-1.5z" fill="#000000" fill-rule="evenodd"/>
<path d="M47,0h8a3,3 0 0,1 3,3v8a3,3 0 0,1 -3,3h-8a3,3 0 0,1 -3,-3v-8a3,3 0 0,1 3,-3zM48.1,2a2.0999999999999996,2.0999999999999996 0 0,0 -2.0999999999999996,2.0999999999999996v5.800000000000001a2.0999999999999996,2.0999999999999996 0 0,0 2.0999999999999996,2.0999999999999996h5.800000000000001a2.0999999999999996,2.0999999999999996 0 0,0 2.0999999999999996,-2.0999999999999996v-5.800000000000001a2.0999999999999996,2.0999999999999996 0 0,0 -2.0999999999999996,-2.0999999999999996h-5.800000000000001zM49.5,4h3a1.5,1.5 0 0,1 1.5,1.5v3a1.5,1.5 0 0,1 -1.5,1.5h-3a1.5,1.5 0 0,1 -1.5,-1.5v-3a1.5,1.5 0 0,1 1.5,-1.5z" fill="#000000" fill-rule="evenodd"/>
<path d="M3,44h8a3,3 0 0,1 3,3v8a3,3 0 0,1 -3,3h-8a3,3 0 0,1 -3,-3v-8a3,3 0 0,1 3,-3zM4.1,46a2.0999999999999996,2.0999999999999996 0 0,0 -2.0999999999999996,2.0999999999999996v5.800000000000001a2.0999999999999996,2.0999999999999996 0 0,0 2.0999999999999996,2.0999999999999996h5.800000000000001a2.0999999999999996,2.0999999999999996 0 0,0 2.0999999999999996,-2.0999999999999996v-5.800000000000001a2.0999999999999996,2.0999999999999996 0 0,0 -2.0999999999999996,-2.0999999999999996h-5.800000000000001zM5.5,48h3a1.5,1.5 0 0,1 1.5,1.5v3a1.5,1.5 0 0,1 -1.5,1.5h-3a1.5,1.5 0 0,1 -1.5,-1.5v-3a1.5,1.5 0 0,1 1.5,-1.5z" fill="#000000" fill-rule="evenodd"/>null</svg>