<svg xmlns="http://www.w3.org/2000/svg" version="1.1" xmlns:xlink="http://www.w3.org/1999/xlink" width="1000" height="1000"><svg width="1000" height="1000" viewBox="0 0 1000 1000" fill="none" xmlns="http://www.w3.org/2000/svg">
<g clip-path="url(#clip0_1_2)">
<path d="M333.333 777.778C333.333 716.411 283.588 666.667 222.222 666.667C160.857 666.667 111.111 716.411 111.111 777.778C111.111 839.145 160.857 888.889 222.222 888.889C283.588 888.889 333.333 839.145 333.333 777.778ZM555.556 944.444V943.902C555.556 913.219 580.429 888.346 611.111 888.346C641.794 888.346 666.667 913.219 666.667 943.902V944.444C666.667 975.127 641.794 1000 611.111 1000C580.429 1000 555.556 975.127 555.556 944.444ZM777.778 944.444V833.333C777.778 802.651 802.651 777.778 833.333 777.778H944.444C975.127 777.778 1000 802.651 1000 833.333C1000 864.016 975.127 888.889 944.444 888.889H888.889V944.444C888.889 975.127 864.016 1000 833.333 1000C802.651 1000 777.778 975.127 777.778 944.444ZM555.556 611.111C555.556 580.429 580.429 555.556 611.111 555.556C641.794 555.556 666.667 580.429 666.667 611.111V666.667H722.222C752.905 666.667 777.778 691.54 777.778 722.222C777.778 752.905 752.905 777.778 722.222 777.778H611.111C580.429 777.778 555.556 752.905 555.556 722.222V611.111ZM944.444 555.556C975.127 555.556 1000 580.429 1000 611.111C1000 641.794 975.127 666.667 944.444 666.667H833.333C802.651 666.667 777.778 641.794 777.778 611.111C777.778 580.429 802.651 555.556 833.333 555.556H944.444ZM333.333 222.222C333.333 160.857 283.587 111.111 222.222 111.111C160.857 111.111 111.111 160.857 111.111 222.222C111.111 283.587 160.857 333.333 222.222 333.333C283.587 333.333 333.333 283.587 333.333 222.222ZM888.889 222.222C888.889 160.857 839.145 111.111 777.778 111.111C716.411 111.111 666.667 160.857 666.667 222.222C666.667 283.588 716.411 333.333 777.778 333.333C839.145 333.333 888.889 283.588 888.889 222.222ZM444.444 777.778C444.444 900.511 344.951 1000 222.222 1000C99.4931 1000 0 900.511 0 777.778C0 655.045 99.4931 555.556 222.222 555.556C344.951 555.556 444.444 655.045 444.444 777.778ZM444.444 222.222C444.444 344.952 344.952 444.444 222.222 444.444C99.4925 444.444 0 344.952 0 222.222C0 99.4925 99.4925 0 222.222 0C344.952 0 444.444 99.4925 444.444 222.222ZM1000 222.222C1000 344.951 900.511 444.444 777.778 444.444C655.045 444.444 555.556 344.951 555.556 222.222C555.556 99.4931 655.045 0 777.778 0C900.511 0 1000 99.4931 1000 222.222Z" fill="black"></path>
</g>
<defs>
<clipPath id="SvgjsClipPath1010">
<rect width="1000" height="1000" fill="white"></rect>
</clipPath>
</defs>
</svg><style>@media (prefers-color-scheme: light) { :root { filter: none; } }
@media (prefers-color-scheme: dark) { :root { filter: none; } }
</style></svg>